<?xml version="1.0" encoding="UTF-8"?><svg id="_レイヤー_1のコピー" xmlns="http://www.w3.org/2000/svg" viewBox="0 0 600 600"><defs><style>.cls-1{fill:#fff;}</style></defs><path class="cls-1" d="M480,300h40c0,58.76-22.88,114.01-64.44,155.56s-96.8,64.44-155.56,64.44-114.01-22.88-155.56-64.44c-41.55-41.55-64.44-96.8-64.44-155.56s22.88-114.01,64.44-155.56c41.55-41.55,96.8-64.44,155.56-64.44v40c-99.25,0-180,80.75-180,180s80.75,180,180,180,180-80.75,180-180ZM360,80h-40v200h40V80ZM600,120v-40h-220v100c55.14,0,100,44.86,100,100h40c0-63.3-42.23-116.91-100-134.17v-25.83h180Z"/></svg>