<?xml version="1.0" encoding="UTF-8"?><svg id="Mute" xmlns="http://www.w3.org/2000/svg" viewBox="0 0 1200 1200"><defs><style>.cls-1{fill:#fff;}.cls-2{fill:none;stroke:#fff;stroke-linecap:round;stroke-linejoin:round;stroke-width:40px;}</style></defs><ellipse class="cls-2" cx="600" cy="600" rx="365" ry="365.45"/><path class="cls-1" d="m670,670v-270c0-7.83-4.57-14.94-11.69-18.19-7.12-3.25-15.49-2.05-21.41,3.08l-135.01,117.01,28.36,28.36,99.75-86.45v186.2l40,40Z"/><path class="cls-1" d="m630,714.85v41.35l-116.9-101.32c-3.64-3.15-8.29-4.89-13.1-4.89h-80v-100h45.15l-40-40h-25.15c-11.05,0-20,8.95-20,20v140c0,11.05,8.95,20,20,20h92.54l144.36,125.11c3.71,3.21,8.38,4.89,13.1,4.89,2.81,0,5.65-.59,8.3-1.81,7.12-3.25,11.69-10.36,11.69-18.19v-45.15l-40-40Z"/><line class="cls-2" x1="800" y1="800" x2="400" y2="400"/></svg>