<?xml version="1.0" encoding="UTF-8"?><svg id="Title" xmlns="http://www.w3.org/2000/svg" viewBox="0 0 1200 300"><defs><style>.cls-1{fill:#fff;}</style></defs><path class="cls-1" d="m0,80.63l58.01-28.3h5.8v201.27c0,13.36.55,21.68,1.67,24.96,1.11,3.28,3.43,5.8,6.94,7.56s10.66,2.75,21.45,2.99v6.5H4.22v-6.5c11.25-.23,18.52-1.2,21.8-2.9,3.28-1.7,5.57-3.98,6.86-6.86,1.29-2.87,1.93-11.45,1.93-25.75V124.93c0-17.34-.59-28.48-1.76-33.4-.82-3.75-2.32-6.5-4.48-8.26-2.17-1.76-4.78-2.64-7.82-2.64-4.34,0-10.37,1.82-18.11,5.45l-2.64-5.45Z"/><path class="cls-1" d="m294.1,57.26l-13.71,29.88h-71.72l-15.65,31.99c31.06,4.57,55.67,16.11,73.83,34.63,15.58,15.94,23.38,34.69,23.38,56.25,0,12.54-2.55,24.14-7.65,34.8-5.1,10.66-11.51,19.75-19.25,27.25-7.74,7.5-16.35,13.54-25.84,18.11-13.48,6.44-27.31,9.67-41.49,9.67s-24.7-2.43-31.2-7.29c-6.5-4.86-9.76-10.22-9.76-16.08,0-3.28,1.35-6.18,4.04-8.7,2.69-2.52,6.09-3.78,10.2-3.78,3.05,0,5.71.47,8,1.41,2.29.94,6.18,3.34,11.69,7.21,8.79,6.09,17.69,9.14,26.72,9.14,13.71,0,25.75-5.19,36.13-15.56s15.56-23,15.56-37.88-4.63-27.86-13.89-40.34c-9.26-12.48-22.04-22.12-38.32-28.92-12.78-5.27-30.18-8.32-52.21-9.14l45.71-92.63h85.44Z"/><path class="cls-1" d="m433.16,129.85v54.84h-5.8c-4.46-17.23-10.17-28.94-17.14-35.16-6.97-6.21-15.85-9.32-26.63-9.32-8.2,0-14.83,2.17-19.86,6.5-5.04,4.34-7.56,9.14-7.56,14.41,0,6.56,1.87,12.19,5.62,16.88,3.63,4.81,11.01,9.9,22.15,15.29l25.67,12.48c23.79,11.6,35.69,26.89,35.69,45.88,0,14.65-5.54,26.46-16.61,35.42-11.08,8.96-23.47,13.45-37.18,13.45-9.84,0-21.1-1.76-33.75-5.27-3.87-1.17-7.03-1.76-9.49-1.76-2.7,0-4.81,1.52-6.33,4.57h-5.8v-57.48h5.8c3.28,16.41,9.55,28.77,18.81,37.09,9.26,8.32,19.63,12.48,31.12,12.48,8.09,0,14.68-2.37,19.78-7.12,5.1-4.75,7.65-10.46,7.65-17.14,0-8.09-2.84-14.88-8.53-20.39-5.69-5.51-17.02-12.48-34.02-20.92-17-8.44-28.13-16.05-33.4-22.85-5.27-6.68-7.91-15.12-7.91-25.31,0-13.24,4.54-24.32,13.62-33.22,9.08-8.9,20.83-13.36,35.25-13.36,6.33,0,14,1.35,23.03,4.04,5.98,1.76,9.96,2.64,11.95,2.64,1.87,0,3.34-.41,4.39-1.23,1.05-.82,2.29-2.64,3.69-5.45h5.8Z"/><path class="cls-1" d="m502.95,261.51c5.51,0,10.14,1.91,13.89,5.71,3.75,3.81,5.62,8.41,5.62,13.8s-1.91,9.99-5.71,13.8c-3.81,3.81-8.41,5.71-13.8,5.71s-9.99-1.91-13.8-5.71c-3.81-3.81-5.71-8.41-5.71-13.8s1.9-10.13,5.71-13.89c3.81-3.75,8.41-5.62,13.8-5.62Z"/><path class="cls-1" d="m607.02,164.13c11.72-11.72,18.63-18.46,20.74-20.21,5.27-4.45,10.96-7.91,17.05-10.37,6.09-2.46,12.13-3.69,18.11-3.69,10.08,0,18.75,2.93,26.02,8.79,7.26,5.86,12.13,14.36,14.59,25.49,12.07-14.06,22.27-23.29,30.59-27.68,8.32-4.39,16.88-6.59,25.67-6.59s16.14,2.2,22.77,6.59c6.62,4.39,11.87,11.57,15.73,21.53,2.58,6.8,3.87,17.46,3.87,31.99v69.26c0,10.08.76,16.99,2.29,20.74,1.17,2.58,3.34,4.78,6.5,6.59,3.17,1.82,8.32,2.72,15.47,2.72v6.33h-79.46v-6.33h3.34c6.91,0,12.31-1.35,16.17-4.04,2.69-1.87,4.63-4.86,5.8-8.96.47-1.99.7-7.67.7-17.05v-69.26c0-13.12-1.58-22.38-4.75-27.77-4.57-7.5-11.9-11.25-21.97-11.25-6.21,0-12.45,1.55-18.72,4.66-6.27,3.11-13.86,8.88-22.77,17.31l-.35,1.93.35,7.56v76.81c0,11.02.62,17.87,1.85,20.57,1.23,2.7,3.54,4.95,6.94,6.77,3.4,1.82,9.2,2.72,17.4,2.72v6.33h-81.39v-6.33c8.91,0,15.03-1.05,18.37-3.16,3.34-2.11,5.65-5.27,6.94-9.49.58-1.99.88-7.79.88-17.4v-69.26c0-13.12-1.93-22.56-5.8-28.3-5.16-7.5-12.37-11.25-21.62-11.25-6.33,0-12.6,1.7-18.81,5.1-9.73,5.16-17.23,10.96-22.5,17.4v86.31c0,10.55.73,17.4,2.2,20.57,1.46,3.16,3.63,5.54,6.5,7.12,2.87,1.58,8.7,2.37,17.49,2.37v6.33h-79.64v-6.33c7.38,0,12.54-.79,15.47-2.37,2.93-1.58,5.16-4.1,6.68-7.56,1.52-3.46,2.29-10.17,2.29-20.13v-61.52c0-17.69-.53-29.12-1.58-34.28-.82-3.87-2.11-6.53-3.87-8-1.76-1.46-4.16-2.2-7.21-2.2-3.28,0-7.21.88-11.78,2.64l-2.64-6.33,48.52-19.69h7.56v34.28Z"/><path class="cls-1" d="m918,129.85c24.38,0,43.95,9.26,58.71,27.77,12.54,15.82,18.81,33.99,18.81,54.49,0,14.41-3.46,29-10.37,43.77-6.92,14.77-16.44,25.9-28.57,33.4s-25.64,11.25-40.52,11.25c-24.26,0-43.54-9.67-57.84-29-12.07-16.29-18.11-34.57-18.11-54.84,0-14.77,3.66-29.44,10.99-44.03,7.32-14.59,16.96-25.37,28.92-32.34,11.95-6.97,24.61-10.46,37.97-10.46Zm-5.45,11.43c-6.21,0-12.45,1.85-18.72,5.54-6.27,3.69-11.34,10.17-15.21,19.42-3.87,9.26-5.8,21.15-5.8,35.68,0,23.44,4.66,43.65,13.98,60.64,9.32,16.99,21.59,25.49,36.83,25.49,11.37,0,20.74-4.69,28.13-14.06,7.38-9.37,11.07-25.49,11.07-48.34,0-28.59-6.15-51.09-18.46-67.5-8.32-11.25-18.93-16.87-31.82-16.87Z"/><path class="cls-1" d="m1011,134.6h75.77v6.5h-4.92c-4.57,0-8.06,1.12-10.46,3.34-2.4,2.23-3.6,5.22-3.6,8.96,0,4.1,1.23,8.96,3.69,14.59l37.44,88.94,37.62-92.28c2.69-6.56,4.04-11.54,4.04-14.94,0-1.64-.47-2.99-1.41-4.04-1.29-1.76-2.93-2.96-4.92-3.6-2-.64-6.04-.97-12.13-.97v-6.5h52.56v6.5c-6.1.47-10.31,1.7-12.66,3.69-4.1,3.52-7.8,9.38-11.08,17.58l-57.13,138.16h-7.21l-57.49-135.88c-2.58-6.33-5.04-10.87-7.38-13.62-2.35-2.75-5.33-5.07-8.97-6.94-1.99-1.05-5.92-2.05-11.78-2.99v-6.5Z"/></svg>